<svg
   viewBox="0 0 67.733332 67.733333"
   version="1.1"
   id="svg1"
   xml:space="preserve"
   xmlns="http://www.w3.org/2000/svg"
   xmlns:svg="http://www.w3.org/2000/svg"><defs
     id="defs1" /><g
     id="layer1"><g
       id="g4"
       transform="matrix(1.2574931,0,0,1.2574931,-103.70627,-142.7955)"><path
         style="fill:none;stroke:#000000;stroke-width:2.5;stroke-linecap:round;stroke-linejoin:round;stroke-dasharray:none;stroke-opacity:1"
         d="m 113.77387,160.44859 h -8.4214 c 0,0 -1.6641,-0.0709 -1.70763,-2.00534 l -0.0409,-10.3392 c -9.939966,-5.19494 -12.824703,-14.61243 -9.600964,-22.51617 2.096451,-5.13994 6.841384,-10.0592 15.097664,-10.0592 20.95207,0 21.34248,26.38278 7.33492,31.42065"
         id="path1" /><path
         style="fill:#000000;fill-opacity:1;stroke:#000000;stroke-width:0.265;stroke-linecap:round;stroke-linejoin:round;stroke-dasharray:none;stroke-opacity:1"
         d="m 112.02715,159.33276 h 2.55657 c 0,0 1.34038,-0.0285 2.11619,-0.21467 -3e-4,1.61848 -1.41555,2.44717 -2.74642,2.44717 h -1.89616 z"
         id="path2" /><path
         id="path3"
         style="fill:#000000;fill-opacity:1;stroke:#000000;stroke-width:0.265;stroke-linecap:round;stroke-linejoin:round;stroke-dasharray:none;stroke-opacity:1"
         d="m 105.63955,164.11711 c 3e-4,1.61848 1.41573,2.44688 2.7466,2.44688 h 0.29197 1.60404 0.29197 c 1.33087,0 2.7463,-0.8284 2.7466,-2.44688 -0.77581,0.18617 -2.11615,0.21446 -2.11615,0.21446 h -0.89193 -1.66502 -0.89193 c 0,0 -1.34034,-0.0283 -2.11615,-0.21446 z" /><path
         style="fill:#000000;fill-opacity:1;stroke:#000000;stroke-width:0.265;stroke-linecap:round;stroke-linejoin:round;stroke-dasharray:none;stroke-opacity:1"
         d="m 116.02961,145.9097 c 0,0 -1.30459,0.52777 -2.09726,0.61846 0.55438,1.52057 2.10381,1.8544 3.11426,1.38902 z"
         id="path4" /></g></g></svg>
